<svg xmlns="http://www.w3.org/2000/svg" width="512" height="512" viewBox="0 0 512 512">
  <defs>
    <linearGradient id="bgGrad" x1="0" y1="0" x2="1" y2="1">
      <stop offset="0" stop-color="#2F6BFF"/>
      <stop offset="1" stop-color="#8B5CF6"/>
    </linearGradient>
  </defs>
  <rect width="512" height="512" rx="116" fill="url(#bgGrad)"/>
  <g transform="translate(0,-12)">
    <path fill="#FFFFFF" d="M96 182 A70 70 0 0 1 166 112 H330 A70 70 0 0 1 400 182 V326 A22 22 0 0 1 378 348 H118 A22 22 0 0 1 96 326 Z"/>
    <circle cx="238" cy="222" r="86" fill="#2B2568"/>
    <path d="M238 222 V158" stroke="#FFFFFF" stroke-width="30" stroke-linecap="round"/>
    <path d="M238 222 L282 246" stroke="#FFFFFF" stroke-width="32" stroke-linecap="round"/>
    <circle cx="238" cy="222" r="17" fill="#FFFFFF"/>
    <circle cx="382" cy="348" r="76" fill="#F44E56" stroke="#FFFFFF" stroke-width="16"/>
    <path d="M354 320 L410 376 M410 320 L354 376" stroke="#FFFFFF" stroke-width="34" stroke-linecap="round"/>
  </g>
</svg>
